<svg width="64" height="64" viewBox="0 0 64 64" fill="none" xmlns="http://www.w3.org/2000/svg">
<path d="M53.6159 27.0262C53.3895 26.6137 53.0514 26.2734 52.6405 26.0443C52.2295 25.8152 51.7623 25.7066 51.2924 25.731L41.3061 26.2544L40.3902 8.77834C40.3555 8.1162 40.0592 7.49498 39.5665 7.05131C39.0737 6.60765 38.4249 6.3779 37.7628 6.4126L22.7834 7.19764C22.1212 7.23234 21.5 7.52865 21.0563 8.02139C20.6127 8.51413 20.3829 9.16292 20.4176 9.82506L21.3335 27.3011L11.3472 27.8244C10.8772 27.8499 10.4239 28.0073 10.0394 28.2787C9.65487 28.5501 9.35467 28.9245 9.17326 29.3588C8.99186 29.7931 8.93661 30.2697 9.01386 30.734C9.09111 31.1983 9.29773 31.6314 9.61 31.9836L30.891 55.9026C31.1402 56.1828 31.4493 56.4034 31.7953 56.5479C32.1413 56.6925 32.5154 56.7574 32.8899 56.7378C33.2644 56.7181 33.6297 56.6145 33.9587 56.4346C34.2878 56.2546 34.5721 56.0029 34.7906 55.6982L53.4548 29.6857C54.0146 28.9029 54.0757 27.8708 53.6159 27.0262Z" fill="white"/>
</svg>
