<svg width="20" height="24" viewBox="0 0 20 24" fill="none" xmlns="http://www.w3.org/2000/svg">
<path d="M19.7504 7.27504V10.7625C19.5629 10.7625 19.3379 10.8 19.1129 10.8C17.4254 10.8 15.8504 10.1625 14.6504 9.15004V16.575C14.6504 18.075 14.1629 19.5 13.3004 20.625C12.1004 22.2375 10.1504 23.325 7.93789 23.325C5.53789 23.325 3.43789 22.05 2.27539 20.175C3.47539 21.3 5.08789 22.0125 6.85039 22.0125C9.02539 22.0125 10.9754 20.9625 12.1754 19.3125C13.0004 18.1875 13.5254 16.8 13.5254 15.2625V7.80004C14.7254 8.85004 16.2629 9.45004 17.9879 9.45004C18.2129 9.45004 18.4004 9.45004 18.6254 9.41254V7.16254C18.9629 7.23754 19.2629 7.27504 19.6004 7.27504H19.7504Z" fill="#FF004F"/>
<path d="M8.87539 9.86257V13.7251C8.61289 13.6501 8.31289 13.6126 8.05039 13.6126C6.40039 13.6126 5.05039 15.0001 5.05039 16.6876C5.05039 17.0626 5.12539 17.4001 5.23789 17.7376C4.48789 17.1751 3.96289 16.2751 3.96289 15.2626C3.96289 13.5751 5.31289 12.1876 6.96289 12.1876C7.26289 12.1876 7.52539 12.2251 7.78789 12.3001V9.82507C7.86289 9.82507 7.93789 9.82507 8.01289 9.82507C8.31289 9.82507 8.61289 9.82507 8.87539 9.86257Z" fill="#FF004F"/>
<path d="M15.2131 4.50006C14.5381 3.90006 14.0506 3.07506 13.7881 2.21255H14.6881C14.6881 2.40005 14.6881 2.55005 14.6881 2.73756C14.7631 3.33756 14.9506 3.93756 15.2131 4.50006Z" fill="#FF004F"/>
<path d="M18.6633 7.20003V9.45003C18.4758 9.48753 18.2508 9.48752 18.0258 9.48752C16.3383 9.48752 14.7633 8.85003 13.5633 7.83752V15.2625C13.5633 16.7625 13.0758 18.1875 12.2133 19.3125C10.9758 20.9625 9.06328 22.0125 6.88828 22.0125C5.12578 22.0125 3.51328 21.3 2.31328 20.175C1.67578 19.125 1.30078 17.925 1.30078 16.6125C1.30078 12.975 4.18828 10.0125 7.78828 9.90002V12.375C7.52578 12.3 7.22578 12.2625 6.96328 12.2625C5.31328 12.2625 3.96328 13.65 3.96328 15.3375C3.96328 16.35 4.45078 17.2875 5.23828 17.8125C5.65078 18.975 6.77578 19.8375 8.05078 19.8375C9.70078 19.8375 11.0508 18.45 11.0508 16.7625V2.21252H13.7883C14.0508 3.11252 14.5383 3.90002 15.2133 4.50002C15.8883 5.85002 17.1633 6.86252 18.6633 7.20003Z" fill="white"/>
<path d="M7.7875 8.54998V9.82498C4.1875 9.93748 1.3 12.9 1.3 16.5375C1.3 17.85 1.675 19.05 2.3125 20.1C1.0375 18.8625 0.25 17.1375 0.25 15.1875C0.25 11.475 3.25 8.47498 6.925 8.47498C7.225 8.47498 7.525 8.51248 7.7875 8.54998Z" fill="#00F7EF"/>
<path d="M13.7883 2.2125H11.0508V16.6875C11.0508 18.375 9.70078 19.7625 8.05078 19.7625C6.73828 19.7625 5.65078 18.9375 5.23828 17.7375C5.72578 18.075 6.32578 18.3 6.96328 18.3C8.61328 18.3 9.96328 16.95 9.96328 15.2625V0.75H13.6008V0.825C13.6008 0.975 13.6008 1.125 13.6383 1.275C13.6383 1.575 13.7133 1.9125 13.7883 2.2125Z" fill="#00F7EF"/>
<path d="M18.6633 5.8125V7.1625C17.1633 6.8625 15.8883 5.85 15.1758 4.5C16.1133 5.3625 17.3133 5.85 18.6633 5.8125Z" fill="#00F7EF"/>
</svg>
