<svg width="81" height="81" viewBox="0 0 81 81" fill="none" xmlns="http://www.w3.org/2000/svg">
<path d="M43.1215 9.16106C41.9682 6.98106 38.3815 6.98106 37.2282 9.16106L7.22816 65.8277C6.95811 66.3356 6.82423 66.9048 6.83956 67.4799C6.8549 68.0549 7.01893 68.6161 7.31567 69.1089C7.61242 69.6017 8.03175 70.0092 8.53282 70.2917C9.03389 70.5743 9.5996 70.7222 10.1748 70.7211H70.1748C70.7497 70.7223 71.315 70.5745 71.8157 70.2921C72.3164 70.0098 72.7355 69.6025 73.0319 69.11C73.3283 68.6175 73.4921 68.0565 73.5072 67.4819C73.5223 66.9072 73.3883 66.3385 73.1182 65.8311L43.1215 9.16106ZM43.5082 60.7211H36.8415V54.0544H43.5082V60.7211ZM36.8415 47.3877V30.7211H43.5082L43.5115 47.3877H36.8415Z" fill="black"/>
</svg>
