<svg width="81" height="81" viewBox="0 0 81 81" fill="none" xmlns="http://www.w3.org/2000/svg">
<path d="M70.1756 20.721H63.509V10.721H56.8423V20.721H23.509V10.721H16.8423V20.721H10.1756C9.29156 20.721 8.44372 21.0722 7.8186 21.6973C7.19347 22.3224 6.84229 23.1703 6.84229 24.0543V47.3877C6.84229 48.2717 7.19347 49.1196 7.8186 49.7447C8.44372 50.3698 9.29156 50.721 10.1756 50.721H16.8423V70.721H23.509V50.721H56.8423V70.721H63.509V50.721H70.1756C71.0597 50.721 71.9075 50.3698 72.5326 49.7447C73.1578 49.1196 73.509 48.2717 73.509 47.3877V24.0543C73.509 23.1703 73.1578 22.3224 72.5326 21.6973C71.9075 21.0722 71.0597 20.721 70.1756 20.721ZM14.909 44.0543L24.4323 27.3877H32.109L22.5856 44.0543H14.909ZM41.099 27.3877H48.7756L39.2523 44.0543H31.5756L41.099 27.3877ZM57.7656 27.3877H65.4423L55.919 44.0543H48.2423L57.7656 27.3877Z" fill="black"/>
</svg>
